<svg xmlns="http://www.w3.org/2000/svg" viewBox="0 0 800 1100" width="800" height="1100">
<defs>
  <radialGradient id="bg" cx=".5" cy=".42" r=".85"><stop offset="0" stop-color="#9b1c1c"/><stop offset=".6" stop-color="#5e0f10"/><stop offset="1" stop-color="#1a0a08"/></radialGradient>
  <radialGradient id="halo" cx=".5" cy=".45" r=".6"><stop offset="0" stop-color="#f3e6cc"/><stop offset="1" stop-color="#efe0bf"/></radialGradient>
  <clipPath id="shirt"><path d="M332 772 L468 772 L400 1030 Z"/></clipPath>
  <filter id="n"><feTurbulence type="fractalNoise" baseFrequency=".9" numOctaves="3" stitchTiles="stitch"/><feColorMatrix values="0 0 0 0 1 0 0 0 0 .9 0 0 0 0 .75 0 0 0 .1 0"/></filter>
</defs>

<rect width="800" height="1100" fill="url(#bg)"/>
<line x1="680.0" y1="470.0" x2="1700.0" y2="470.0" stroke="#c9a24a" stroke-width="3" opacity="0.22"/><line x1="678.9" y1="494.4" x2="1296.6" y2="548.4" stroke="#c9a24a" stroke-width="1.5" opacity="0.14"/><line x1="675.7" y1="518.6" x2="1680.3" y2="695.7" stroke="#c9a24a" stroke-width="3" opacity="0.22"/><line x1="670.5" y1="542.5" x2="1269.3" y2="702.9" stroke="#c9a24a" stroke-width="1.5" opacity="0.14"/><line x1="663.1" y1="565.8" x2="1621.6" y2="914.6" stroke="#c9a24a" stroke-width="3" opacity="0.22"/><line x1="653.8" y1="588.3" x2="1215.7" y2="850.4" stroke="#c9a24a" stroke-width="1.5" opacity="0.14"/><line x1="642.5" y1="610.0" x2="1525.8" y2="1120.0" stroke="#c9a24a" stroke-width="3" opacity="0.22"/><line x1="629.4" y1="630.6" x2="1137.2" y2="986.2" stroke="#c9a24a" stroke-width="1.5" opacity="0.14"/><line x1="614.5" y1="650.0" x2="1395.9" y2="1305.6" stroke="#c9a24a" stroke-width="3" opacity="0.22"/><line x1="598.0" y1="668.0" x2="1036.4" y2="1106.4" stroke="#c9a24a" stroke-width="1.5" opacity="0.14"/><line x1="580.0" y1="684.5" x2="1235.6" y2="1465.9" stroke="#c9a24a" stroke-width="3" opacity="0.22"/><line x1="560.6" y1="699.4" x2="916.2" y2="1207.2" stroke="#c9a24a" stroke-width="1.5" opacity="0.14"/><line x1="540.0" y1="712.5" x2="1050.0" y2="1595.8" stroke="#c9a24a" stroke-width="3" opacity="0.22"/><line x1="518.3" y1="723.8" x2="780.4" y2="1285.7" stroke="#c9a24a" stroke-width="1.5" opacity="0.14"/><line x1="495.8" y1="733.1" x2="844.6" y2="1691.6" stroke="#c9a24a" stroke-width="3" opacity="0.22"/><line x1="472.5" y1="740.5" x2="632.9" y2="1339.3" stroke="#c9a24a" stroke-width="1.5" opacity="0.14"/><line x1="448.6" y1="745.7" x2="625.7" y2="1750.3" stroke="#c9a24a" stroke-width="3" opacity="0.22"/><line x1="424.4" y1="748.9" x2="478.4" y2="1366.6" stroke="#c9a24a" stroke-width="1.5" opacity="0.14"/><line x1="400.0" y1="750.0" x2="400.0" y2="1770.0" stroke="#c9a24a" stroke-width="3" opacity="0.22"/><line x1="375.6" y1="748.9" x2="321.6" y2="1366.6" stroke="#c9a24a" stroke-width="1.5" opacity="0.14"/><line x1="351.4" y1="745.7" x2="174.3" y2="1750.3" stroke="#c9a24a" stroke-width="3" opacity="0.22"/><line x1="327.5" y1="740.5" x2="167.1" y2="1339.3" stroke="#c9a24a" stroke-width="1.5" opacity="0.14"/><line x1="304.2" y1="733.1" x2="-44.6" y2="1691.6" stroke="#c9a24a" stroke-width="3" opacity="0.22"/><line x1="281.7" y1="723.8" x2="19.6" y2="1285.7" stroke="#c9a24a" stroke-width="1.5" opacity="0.14"/><line x1="260.0" y1="712.5" x2="-250.0" y2="1595.8" stroke="#c9a24a" stroke-width="3" opacity="0.22"/><line x1="239.4" y1="699.4" x2="-116.2" y2="1207.2" stroke="#c9a24a" stroke-width="1.5" opacity="0.14"/><line x1="220.0" y1="684.5" x2="-435.6" y2="1465.9" stroke="#c9a24a" stroke-width="3" opacity="0.22"/><line x1="202.0" y1="668.0" x2="-236.4" y2="1106.4" stroke="#c9a24a" stroke-width="1.5" opacity="0.14"/><line x1="185.5" y1="650.0" x2="-595.9" y2="1305.6" stroke="#c9a24a" stroke-width="3" opacity="0.22"/><line x1="170.6" y1="630.6" x2="-337.2" y2="986.2" stroke="#c9a24a" stroke-width="1.5" opacity="0.14"/><line x1="157.5" y1="610.0" x2="-725.8" y2="1120.0" stroke="#c9a24a" stroke-width="3" opacity="0.22"/><line x1="146.2" y1="588.3" x2="-415.7" y2="850.4" stroke="#c9a24a" stroke-width="1.5" opacity="0.14"/><line x1="136.9" y1="565.8" x2="-821.6" y2="914.6" stroke="#c9a24a" stroke-width="3" opacity="0.22"/><line x1="129.5" y1="542.5" x2="-469.3" y2="702.9" stroke="#c9a24a" stroke-width="1.5" opacity="0.14"/><line x1="124.3" y1="518.6" x2="-880.3" y2="695.7" stroke="#c9a24a" stroke-width="3" opacity="0.22"/><line x1="121.1" y1="494.4" x2="-496.6" y2="548.4" stroke="#c9a24a" stroke-width="1.5" opacity="0.14"/><line x1="120.0" y1="470.0" x2="-900.0" y2="470.0" stroke="#c9a24a" stroke-width="3" opacity="0.22"/><line x1="121.1" y1="445.6" x2="-496.6" y2="391.6" stroke="#c9a24a" stroke-width="1.5" opacity="0.14"/><line x1="124.3" y1="421.4" x2="-880.3" y2="244.3" stroke="#c9a24a" stroke-width="3" opacity="0.22"/><line x1="129.5" y1="397.5" x2="-469.3" y2="237.1" stroke="#c9a24a" stroke-width="1.5" opacity="0.14"/><line x1="136.9" y1="374.2" x2="-821.6" y2="25.4" stroke="#c9a24a" stroke-width="3" opacity="0.22"/><line x1="146.2" y1="351.7" x2="-415.7" y2="89.6" stroke="#c9a24a" stroke-width="1.5" opacity="0.14"/><line x1="157.5" y1="330.0" x2="-725.8" y2="-180.0" stroke="#c9a24a" stroke-width="3" opacity="0.22"/><line x1="170.6" y1="309.4" x2="-337.2" y2="-46.2" stroke="#c9a24a" stroke-width="1.5" opacity="0.14"/><line x1="185.5" y1="290.0" x2="-595.9" y2="-365.6" stroke="#c9a24a" stroke-width="3" opacity="0.22"/><line x1="202.0" y1="272.0" x2="-236.4" y2="-166.4" stroke="#c9a24a" stroke-width="1.5" opacity="0.14"/><line x1="220.0" y1="255.5" x2="-435.6" y2="-525.9" stroke="#c9a24a" stroke-width="3" opacity="0.22"/><line x1="239.4" y1="240.6" x2="-116.2" y2="-267.2" stroke="#c9a24a" stroke-width="1.5" opacity="0.14"/><line x1="260.0" y1="227.5" x2="-250.0" y2="-655.8" stroke="#c9a24a" stroke-width="3" opacity="0.22"/><line x1="281.7" y1="216.2" x2="19.6" y2="-345.7" stroke="#c9a24a" stroke-width="1.5" opacity="0.14"/><line x1="304.2" y1="206.9" x2="-44.6" y2="-751.6" stroke="#c9a24a" stroke-width="3" opacity="0.22"/><line x1="327.5" y1="199.5" x2="167.1" y2="-399.3" stroke="#c9a24a" stroke-width="1.5" opacity="0.14"/><line x1="351.4" y1="194.3" x2="174.3" y2="-810.3" stroke="#c9a24a" stroke-width="3" opacity="0.22"/><line x1="375.6" y1="191.1" x2="321.6" y2="-426.6" stroke="#c9a24a" stroke-width="1.5" opacity="0.14"/><line x1="400.0" y1="190.0" x2="400.0" y2="-830.0" stroke="#c9a24a" stroke-width="3" opacity="0.22"/><line x1="424.4" y1="191.1" x2="478.4" y2="-426.6" stroke="#c9a24a" stroke-width="1.5" opacity="0.14"/><line x1="448.6" y1="194.3" x2="625.7" y2="-810.3" stroke="#c9a24a" stroke-width="3" opacity="0.22"/><line x1="472.5" y1="199.5" x2="632.9" y2="-399.3" stroke="#c9a24a" stroke-width="1.5" opacity="0.14"/><line x1="495.8" y1="206.9" x2="844.6" y2="-751.6" stroke="#c9a24a" stroke-width="3" opacity="0.22"/><line x1="518.3" y1="216.2" x2="780.4" y2="-345.7" stroke="#c9a24a" stroke-width="1.5" opacity="0.14"/><line x1="540.0" y1="227.5" x2="1050.0" y2="-655.8" stroke="#c9a24a" stroke-width="3" opacity="0.22"/><line x1="560.6" y1="240.6" x2="916.2" y2="-267.2" stroke="#c9a24a" stroke-width="1.5" opacity="0.14"/><line x1="580.0" y1="255.5" x2="1235.6" y2="-525.9" stroke="#c9a24a" stroke-width="3" opacity="0.22"/><line x1="598.0" y1="272.0" x2="1036.4" y2="-166.4" stroke="#c9a24a" stroke-width="1.5" opacity="0.14"/><line x1="614.5" y1="290.0" x2="1395.9" y2="-365.6" stroke="#c9a24a" stroke-width="3" opacity="0.22"/><line x1="629.4" y1="309.4" x2="1137.2" y2="-46.2" stroke="#c9a24a" stroke-width="1.5" opacity="0.14"/><line x1="642.5" y1="330.0" x2="1525.8" y2="-180.0" stroke="#c9a24a" stroke-width="3" opacity="0.22"/><line x1="653.8" y1="351.7" x2="1215.7" y2="89.6" stroke="#c9a24a" stroke-width="1.5" opacity="0.14"/><line x1="663.1" y1="374.2" x2="1621.6" y2="25.4" stroke="#c9a24a" stroke-width="3" opacity="0.22"/><line x1="670.5" y1="397.5" x2="1269.3" y2="237.1" stroke="#c9a24a" stroke-width="1.5" opacity="0.14"/><line x1="675.7" y1="421.4" x2="1680.3" y2="244.3" stroke="#c9a24a" stroke-width="3" opacity="0.22"/><line x1="678.9" y1="445.6" x2="1296.6" y2="391.6" stroke="#c9a24a" stroke-width="1.5" opacity="0.14"/>

<!-- Médaillon -->
<circle cx="400" cy="470" r="262" fill="none" stroke="#c9a24a" stroke-width="3"/>
<circle cx="400" cy="470" r="254" fill="url(#halo)" stroke="#1b1511" stroke-width="3"/>
<circle cx="646.0" cy="470.0" r="6" fill="#9b1c1c"/><circle cx="644.7" cy="495.7" r="3.5" fill="#c9a24a"/><circle cx="640.6" cy="521.1" r="3.5" fill="#c9a24a"/><circle cx="634.0" cy="546.0" r="3.5" fill="#c9a24a"/><circle cx="624.7" cy="570.1" r="3.5" fill="#c9a24a"/><circle cx="613.0" cy="593.0" r="6" fill="#9b1c1c"/><circle cx="599.0" cy="614.6" r="3.5" fill="#c9a24a"/><circle cx="582.8" cy="634.6" r="3.5" fill="#c9a24a"/><circle cx="564.6" cy="652.8" r="3.5" fill="#c9a24a"/><circle cx="544.6" cy="669.0" r="3.5" fill="#c9a24a"/><circle cx="523.0" cy="683.0" r="6" fill="#9b1c1c"/><circle cx="500.1" cy="694.7" r="3.5" fill="#c9a24a"/><circle cx="476.0" cy="704.0" r="3.5" fill="#c9a24a"/><circle cx="451.1" cy="710.6" r="3.5" fill="#c9a24a"/><circle cx="425.7" cy="714.7" r="3.5" fill="#c9a24a"/><circle cx="400.0" cy="716.0" r="6" fill="#9b1c1c"/><circle cx="374.3" cy="714.7" r="3.5" fill="#c9a24a"/><circle cx="348.9" cy="710.6" r="3.5" fill="#c9a24a"/><circle cx="324.0" cy="704.0" r="3.5" fill="#c9a24a"/><circle cx="299.9" cy="694.7" r="3.5" fill="#c9a24a"/><circle cx="277.0" cy="683.0" r="6" fill="#9b1c1c"/><circle cx="255.4" cy="669.0" r="3.5" fill="#c9a24a"/><circle cx="235.4" cy="652.8" r="3.5" fill="#c9a24a"/><circle cx="217.2" cy="634.6" r="3.5" fill="#c9a24a"/><circle cx="201.0" cy="614.6" r="3.5" fill="#c9a24a"/><circle cx="187.0" cy="593.0" r="6" fill="#9b1c1c"/><circle cx="175.3" cy="570.1" r="3.5" fill="#c9a24a"/><circle cx="166.0" cy="546.0" r="3.5" fill="#c9a24a"/><circle cx="159.4" cy="521.1" r="3.5" fill="#c9a24a"/><circle cx="155.3" cy="495.7" r="3.5" fill="#c9a24a"/><circle cx="154.0" cy="470.0" r="6" fill="#9b1c1c"/><circle cx="155.3" cy="444.3" r="3.5" fill="#c9a24a"/><circle cx="159.4" cy="418.9" r="3.5" fill="#c9a24a"/><circle cx="166.0" cy="394.0" r="3.5" fill="#c9a24a"/><circle cx="175.3" cy="369.9" r="3.5" fill="#c9a24a"/><circle cx="187.0" cy="347.0" r="6" fill="#9b1c1c"/><circle cx="201.0" cy="325.4" r="3.5" fill="#c9a24a"/><circle cx="217.2" cy="305.4" r="3.5" fill="#c9a24a"/><circle cx="235.4" cy="287.2" r="3.5" fill="#c9a24a"/><circle cx="255.4" cy="271.0" r="3.5" fill="#c9a24a"/><circle cx="277.0" cy="257.0" r="6" fill="#9b1c1c"/><circle cx="299.9" cy="245.3" r="3.5" fill="#c9a24a"/><circle cx="324.0" cy="236.0" r="3.5" fill="#c9a24a"/><circle cx="348.9" cy="229.4" r="3.5" fill="#c9a24a"/><circle cx="374.3" cy="225.3" r="3.5" fill="#c9a24a"/><circle cx="400.0" cy="224.0" r="6" fill="#9b1c1c"/><circle cx="425.7" cy="225.3" r="3.5" fill="#c9a24a"/><circle cx="451.1" cy="229.4" r="3.5" fill="#c9a24a"/><circle cx="476.0" cy="236.0" r="3.5" fill="#c9a24a"/><circle cx="500.1" cy="245.3" r="3.5" fill="#c9a24a"/><circle cx="523.0" cy="257.0" r="6" fill="#9b1c1c"/><circle cx="544.6" cy="271.0" r="3.5" fill="#c9a24a"/><circle cx="564.6" cy="287.2" r="3.5" fill="#c9a24a"/><circle cx="582.8" cy="305.4" r="3.5" fill="#c9a24a"/><circle cx="599.0" cy="325.4" r="3.5" fill="#c9a24a"/><circle cx="613.0" cy="347.0" r="6" fill="#9b1c1c"/><circle cx="624.7" cy="369.9" r="3.5" fill="#c9a24a"/><circle cx="634.0" cy="394.0" r="3.5" fill="#c9a24a"/><circle cx="640.6" cy="418.9" r="3.5" fill="#c9a24a"/><circle cx="644.7" cy="444.3" r="3.5" fill="#c9a24a"/>
<circle cx="400" cy="470" r="234" fill="none" stroke="#1b1511" stroke-width="2"/>
<circle cx="400" cy="470" r="226" fill="none" stroke="#c9a24a" stroke-width="1.5"/>
<line x1="520.0" y1="470.0" x2="624.0" y2="470.0" stroke="#c9a24a" stroke-width="2" opacity=".45"/><line x1="519.0" y1="485.7" x2="622.1" y2="499.2" stroke="#c9a24a" stroke-width="2" opacity=".45"/><line x1="515.9" y1="501.1" x2="616.4" y2="528.0" stroke="#c9a24a" stroke-width="2" opacity=".45"/><line x1="510.9" y1="515.9" x2="606.9" y2="555.7" stroke="#c9a24a" stroke-width="2" opacity=".45"/><line x1="503.9" y1="530.0" x2="594.0" y2="582.0" stroke="#c9a24a" stroke-width="2" opacity=".45"/><line x1="495.2" y1="543.1" x2="577.7" y2="606.4" stroke="#c9a24a" stroke-width="2" opacity=".45"/><line x1="484.9" y1="554.9" x2="558.4" y2="628.4" stroke="#c9a24a" stroke-width="2" opacity=".45"/><line x1="473.1" y1="565.2" x2="536.4" y2="647.7" stroke="#c9a24a" stroke-width="2" opacity=".45"/><line x1="460.0" y1="573.9" x2="512.0" y2="664.0" stroke="#c9a24a" stroke-width="2" opacity=".45"/><line x1="445.9" y1="580.9" x2="485.7" y2="676.9" stroke="#c9a24a" stroke-width="2" opacity=".45"/><line x1="431.1" y1="585.9" x2="458.0" y2="686.4" stroke="#c9a24a" stroke-width="2" opacity=".45"/><line x1="415.7" y1="589.0" x2="429.2" y2="692.1" stroke="#c9a24a" stroke-width="2" opacity=".45"/><line x1="400.0" y1="590.0" x2="400.0" y2="694.0" stroke="#c9a24a" stroke-width="2" opacity=".45"/><line x1="384.3" y1="589.0" x2="370.8" y2="692.1" stroke="#c9a24a" stroke-width="2" opacity=".45"/><line x1="368.9" y1="585.9" x2="342.0" y2="686.4" stroke="#c9a24a" stroke-width="2" opacity=".45"/><line x1="354.1" y1="580.9" x2="314.3" y2="676.9" stroke="#c9a24a" stroke-width="2" opacity=".45"/><line x1="340.0" y1="573.9" x2="288.0" y2="664.0" stroke="#c9a24a" stroke-width="2" opacity=".45"/><line x1="326.9" y1="565.2" x2="263.6" y2="647.7" stroke="#c9a24a" stroke-width="2" opacity=".45"/><line x1="315.1" y1="554.9" x2="241.6" y2="628.4" stroke="#c9a24a" stroke-width="2" opacity=".45"/><line x1="304.8" y1="543.1" x2="222.3" y2="606.4" stroke="#c9a24a" stroke-width="2" opacity=".45"/><line x1="296.1" y1="530.0" x2="206.0" y2="582.0" stroke="#c9a24a" stroke-width="2" opacity=".45"/><line x1="289.1" y1="515.9" x2="193.1" y2="555.7" stroke="#c9a24a" stroke-width="2" opacity=".45"/><line x1="284.1" y1="501.1" x2="183.6" y2="528.0" stroke="#c9a24a" stroke-width="2" opacity=".45"/><line x1="281.0" y1="485.7" x2="177.9" y2="499.2" stroke="#c9a24a" stroke-width="2" opacity=".45"/><line x1="280.0" y1="470.0" x2="176.0" y2="470.0" stroke="#c9a24a" stroke-width="2" opacity=".45"/><line x1="281.0" y1="454.3" x2="177.9" y2="440.8" stroke="#c9a24a" stroke-width="2" opacity=".45"/><line x1="284.1" y1="438.9" x2="183.6" y2="412.0" stroke="#c9a24a" stroke-width="2" opacity=".45"/><line x1="289.1" y1="424.1" x2="193.1" y2="384.3" stroke="#c9a24a" stroke-width="2" opacity=".45"/><line x1="296.1" y1="410.0" x2="206.0" y2="358.0" stroke="#c9a24a" stroke-width="2" opacity=".45"/><line x1="304.8" y1="396.9" x2="222.3" y2="333.6" stroke="#c9a24a" stroke-width="2" opacity=".45"/><line x1="315.1" y1="385.1" x2="241.6" y2="311.6" stroke="#c9a24a" stroke-width="2" opacity=".45"/><line x1="326.9" y1="374.8" x2="263.6" y2="292.3" stroke="#c9a24a" stroke-width="2" opacity=".45"/><line x1="340.0" y1="366.1" x2="288.0" y2="276.0" stroke="#c9a24a" stroke-width="2" opacity=".45"/><line x1="354.1" y1="359.1" x2="314.3" y2="263.1" stroke="#c9a24a" stroke-width="2" opacity=".45"/><line x1="368.9" y1="354.1" x2="342.0" y2="253.6" stroke="#c9a24a" stroke-width="2" opacity=".45"/><line x1="384.3" y1="351.0" x2="370.8" y2="247.9" stroke="#c9a24a" stroke-width="2" opacity=".45"/><line x1="400.0" y1="350.0" x2="400.0" y2="246.0" stroke="#c9a24a" stroke-width="2" opacity=".45"/><line x1="415.7" y1="351.0" x2="429.2" y2="247.9" stroke="#c9a24a" stroke-width="2" opacity=".45"/><line x1="431.1" y1="354.1" x2="458.0" y2="253.6" stroke="#c9a24a" stroke-width="2" opacity=".45"/><line x1="445.9" y1="359.1" x2="485.7" y2="263.1" stroke="#c9a24a" stroke-width="2" opacity=".45"/><line x1="460.0" y1="366.1" x2="512.0" y2="276.0" stroke="#c9a24a" stroke-width="2" opacity=".45"/><line x1="473.1" y1="374.8" x2="536.4" y2="292.3" stroke="#c9a24a" stroke-width="2" opacity=".45"/><line x1="484.9" y1="385.1" x2="558.4" y2="311.6" stroke="#c9a24a" stroke-width="2" opacity=".45"/><line x1="495.2" y1="396.9" x2="577.7" y2="333.6" stroke="#c9a24a" stroke-width="2" opacity=".45"/><line x1="503.9" y1="410.0" x2="594.0" y2="358.0" stroke="#c9a24a" stroke-width="2" opacity=".45"/><line x1="510.9" y1="424.1" x2="606.9" y2="384.3" stroke="#c9a24a" stroke-width="2" opacity=".45"/><line x1="515.9" y1="438.9" x2="616.4" y2="412.0" stroke="#c9a24a" stroke-width="2" opacity=".45"/><line x1="519.0" y1="454.3" x2="622.1" y2="440.8" stroke="#c9a24a" stroke-width="2" opacity=".45"/>

<g>
    <path d="M-10 1100 C60 980 20 880 110 800 C190 730 170 640 120 610 C90 592 70 620 92 640" fill="none" stroke="#123a37" stroke-width="16" stroke-linecap="round"/>
    <path d="M-10 1100 C60 980 20 880 110 800 C190 730 170 640 120 610 C90 592 70 620 92 640" fill="none" stroke="#c9a24a" stroke-width="3" stroke-linecap="round"/>
    <path d="M40 1100 C110 1010 140 950 210 910 C260 882 250 840 222 836" fill="none" stroke="#123a37" stroke-width="10" stroke-linecap="round"/>
    <path d="M40 1100 C110 1010 140 950 210 910 C260 882 250 840 222 836" fill="none" stroke="#c9a24a" stroke-width="2" stroke-linecap="round"/>
    <g transform="translate(70 930) rotate(-60) scale(1)"><path d="M0 0 C18 -30 58 -34 84 -8 C58 12 22 16 0 0 Z" fill="#1f5c57" stroke="#c9a24a" stroke-width="2"/><path d="M4 -1 C30 -10 56 -12 80 -8" fill="none" stroke="#e9d18f" stroke-width="1.5" opacity=".8"/></g><g transform="translate(130 780) rotate(-110) scale(0.9)"><path d="M0 0 C18 -30 58 -34 84 -8 C58 12 22 16 0 0 Z" fill="#1f5c57" stroke="#c9a24a" stroke-width="2"/><path d="M4 -1 C30 -10 56 -12 80 -8" fill="none" stroke="#e9d18f" stroke-width="1.5" opacity=".8"/></g><g transform="translate(150 960) rotate(-20) scale(0.8)"><path d="M0 0 C18 -30 58 -34 84 -8 C58 12 22 16 0 0 Z" fill="#1f5c57" stroke="#c9a24a" stroke-width="2"/><path d="M4 -1 C30 -10 56 -12 80 -8" fill="none" stroke="#e9d18f" stroke-width="1.5" opacity=".8"/></g>
    <g transform="translate(118 606) scale(0.9)"><path d="M0 0 C-16 -18 -14 -48 0 -58 C14 -48 16 -18 0 0 Z" fill="#9b1c1c" stroke="#c9a24a" stroke-width="2" transform="rotate(0)"/><path d="M0 0 C-16 -18 -14 -48 0 -58 C14 -48 16 -18 0 0 Z" fill="#9b1c1c" stroke="#c9a24a" stroke-width="2" transform="rotate(72)"/><path d="M0 0 C-16 -18 -14 -48 0 -58 C14 -48 16 -18 0 0 Z" fill="#9b1c1c" stroke="#c9a24a" stroke-width="2" transform="rotate(144)"/><path d="M0 0 C-16 -18 -14 -48 0 -58 C14 -48 16 -18 0 0 Z" fill="#9b1c1c" stroke="#c9a24a" stroke-width="2" transform="rotate(216)"/><path d="M0 0 C-16 -18 -14 -48 0 -58 C14 -48 16 -18 0 0 Z" fill="#9b1c1c" stroke="#c9a24a" stroke-width="2" transform="rotate(288)"/><circle r="13" fill="#c9a24a" stroke="#1b1511" stroke-width="2"/><circle r="5" fill="#1b1511"/></g><g transform="translate(222 832) scale(0.55)"><path d="M0 0 C-16 -18 -14 -48 0 -58 C14 -48 16 -18 0 0 Z" fill="#9b1c1c" stroke="#c9a24a" stroke-width="2" transform="rotate(0)"/><path d="M0 0 C-16 -18 -14 -48 0 -58 C14 -48 16 -18 0 0 Z" fill="#9b1c1c" stroke="#c9a24a" stroke-width="2" transform="rotate(72)"/><path d="M0 0 C-16 -18 -14 -48 0 -58 C14 -48 16 -18 0 0 Z" fill="#9b1c1c" stroke="#c9a24a" stroke-width="2" transform="rotate(144)"/><path d="M0 0 C-16 -18 -14 -48 0 -58 C14 -48 16 -18 0 0 Z" fill="#9b1c1c" stroke="#c9a24a" stroke-width="2" transform="rotate(216)"/><path d="M0 0 C-16 -18 -14 -48 0 -58 C14 -48 16 -18 0 0 Z" fill="#9b1c1c" stroke="#c9a24a" stroke-width="2" transform="rotate(288)"/><circle r="13" fill="#c9a24a" stroke="#1b1511" stroke-width="2"/><circle r="5" fill="#1b1511"/></g></g>
<g transform="translate(800 0) scale(-1 1)">
    <path d="M-10 1100 C60 980 20 880 110 800 C190 730 170 640 120 610 C90 592 70 620 92 640" fill="none" stroke="#123a37" stroke-width="16" stroke-linecap="round"/>
    <path d="M-10 1100 C60 980 20 880 110 800 C190 730 170 640 120 610 C90 592 70 620 92 640" fill="none" stroke="#c9a24a" stroke-width="3" stroke-linecap="round"/>
    <path d="M40 1100 C110 1010 140 950 210 910 C260 882 250 840 222 836" fill="none" stroke="#123a37" stroke-width="10" stroke-linecap="round"/>
    <path d="M40 1100 C110 1010 140 950 210 910 C260 882 250 840 222 836" fill="none" stroke="#c9a24a" stroke-width="2" stroke-linecap="round"/>
    <g transform="translate(70 930) rotate(-60) scale(1)"><path d="M0 0 C18 -30 58 -34 84 -8 C58 12 22 16 0 0 Z" fill="#1f5c57" stroke="#c9a24a" stroke-width="2"/><path d="M4 -1 C30 -10 56 -12 80 -8" fill="none" stroke="#e9d18f" stroke-width="1.5" opacity=".8"/></g><g transform="translate(130 780) rotate(-110) scale(0.9)"><path d="M0 0 C18 -30 58 -34 84 -8 C58 12 22 16 0 0 Z" fill="#1f5c57" stroke="#c9a24a" stroke-width="2"/><path d="M4 -1 C30 -10 56 -12 80 -8" fill="none" stroke="#e9d18f" stroke-width="1.5" opacity=".8"/></g><g transform="translate(150 960) rotate(-20) scale(0.8)"><path d="M0 0 C18 -30 58 -34 84 -8 C58 12 22 16 0 0 Z" fill="#1f5c57" stroke="#c9a24a" stroke-width="2"/><path d="M4 -1 C30 -10 56 -12 80 -8" fill="none" stroke="#e9d18f" stroke-width="1.5" opacity=".8"/></g>
    <g transform="translate(118 606) scale(0.9)"><path d="M0 0 C-16 -18 -14 -48 0 -58 C14 -48 16 -18 0 0 Z" fill="#9b1c1c" stroke="#c9a24a" stroke-width="2" transform="rotate(0)"/><path d="M0 0 C-16 -18 -14 -48 0 -58 C14 -48 16 -18 0 0 Z" fill="#9b1c1c" stroke="#c9a24a" stroke-width="2" transform="rotate(72)"/><path d="M0 0 C-16 -18 -14 -48 0 -58 C14 -48 16 -18 0 0 Z" fill="#9b1c1c" stroke="#c9a24a" stroke-width="2" transform="rotate(144)"/><path d="M0 0 C-16 -18 -14 -48 0 -58 C14 -48 16 -18 0 0 Z" fill="#9b1c1c" stroke="#c9a24a" stroke-width="2" transform="rotate(216)"/><path d="M0 0 C-16 -18 -14 -48 0 -58 C14 -48 16 -18 0 0 Z" fill="#9b1c1c" stroke="#c9a24a" stroke-width="2" transform="rotate(288)"/><circle r="13" fill="#c9a24a" stroke="#1b1511" stroke-width="2"/><circle r="5" fill="#1b1511"/></g><g transform="translate(222 832) scale(0.55)"><path d="M0 0 C-16 -18 -14 -48 0 -58 C14 -48 16 -18 0 0 Z" fill="#9b1c1c" stroke="#c9a24a" stroke-width="2" transform="rotate(0)"/><path d="M0 0 C-16 -18 -14 -48 0 -58 C14 -48 16 -18 0 0 Z" fill="#9b1c1c" stroke="#c9a24a" stroke-width="2" transform="rotate(72)"/><path d="M0 0 C-16 -18 -14 -48 0 -58 C14 -48 16 -18 0 0 Z" fill="#9b1c1c" stroke="#c9a24a" stroke-width="2" transform="rotate(144)"/><path d="M0 0 C-16 -18 -14 -48 0 -58 C14 -48 16 -18 0 0 Z" fill="#9b1c1c" stroke="#c9a24a" stroke-width="2" transform="rotate(216)"/><path d="M0 0 C-16 -18 -14 -48 0 -58 C14 -48 16 -18 0 0 Z" fill="#9b1c1c" stroke="#c9a24a" stroke-width="2" transform="rotate(288)"/><circle r="13" fill="#c9a24a" stroke="#1b1511" stroke-width="2"/><circle r="5" fill="#1b1511"/></g></g>


<!-- Longue chevelure blanche : masse arrière, ondulations Art nouveau -->
<g>
  <path d="M312 372 C240 396 206 470 208 570 C210 670 188 760 132 868 C196 872 252 846 292 800 C322 764 330 714 320 660 C310 610 300 520 312 372 Z" fill="#f5f2ec" stroke="#1b1511" stroke-width="4" stroke-linejoin="round"/>
  <path d="M488 372 C560 396 594 470 592 570 C590 670 612 760 668 868 C604 872 548 846 508 800 C478 764 470 714 480 660 C490 610 500 520 488 372 Z" fill="#f5f2ec" stroke="#1b1511" stroke-width="4" stroke-linejoin="round"/>
  <path d="M262 420 C236 480 232 560 240 640 C248 720 222 790 180 850 M290 470 C270 540 272 620 282 700 C288 750 270 790 246 826" fill="none" stroke="#d6cfc2" stroke-width="3" stroke-linecap="round"/>
  <path d="M538 420 C564 480 568 560 560 640 C552 720 578 790 620 850 M510 470 C530 540 528 620 518 700 C512 750 530 790 554 826" fill="none" stroke="#d6cfc2" stroke-width="3" stroke-linecap="round"/>
</g>

<!-- Habit : épaules et revers anguleux -->
<path d="M110 1100 L150 900 C180 820 260 790 332 772 L400 830 L468 772 C540 790 620 820 650 900 L690 1100 Z" fill="#1b1511"/>
<path d="M332 772 L468 772 L400 1030 Z" fill="#f3e6cc"/>
<g clip-path="url(#shirt)"><rect x="300" y="780" width="200" height="14" fill="#1f2b45"/><rect x="300" y="808" width="200" height="14" fill="#1f2b45"/><rect x="300" y="836" width="200" height="14" fill="#1f2b45"/><rect x="300" y="864" width="200" height="14" fill="#1f2b45"/><rect x="300" y="892" width="200" height="14" fill="#1f2b45"/><rect x="300" y="920" width="200" height="14" fill="#1f2b45"/><rect x="300" y="948" width="200" height="14" fill="#1f2b45"/><rect x="300" y="976" width="200" height="14" fill="#1f2b45"/><rect x="300" y="1004" width="200" height="14" fill="#1f2b45"/><rect x="300" y="1032" width="200" height="14" fill="#1f2b45"/><rect x="300" y="1060" width="200" height="14" fill="#1f2b45"/><rect x="300" y="1088" width="200" height="14" fill="#1f2b45"/></g>
<path d="M332 772 L400 1030 L346 1030 L262 812 Z" fill="#241c19" stroke="#c9a24a" stroke-width="3" stroke-linejoin="miter"/>
<path d="M468 772 L400 1030 L454 1030 L538 812 Z" fill="#241c19" stroke="#c9a24a" stroke-width="3" stroke-linejoin="miter"/>
<path d="M262 812 L300 880 M538 812 L500 880" stroke="#c9a24a" stroke-width="2"/>
<!-- Nœud papillon géométrique -->
<path d="M400 790 L336 760 L336 820 Z M400 790 L464 760 L464 820 Z" fill="#9b1c1c" stroke="#c9a24a" stroke-width="3" stroke-linejoin="miter"/>
<path d="M400 774 L416 790 L400 806 L384 790 Z" fill="#c9a24a" stroke="#1b1511" stroke-width="2"/>


<!-- Mèches qui retombent sur les épaules, devant l'habit -->
<path d="M244 700 C256 770 238 830 200 884 C190 898 186 914 196 920 C204 904 222 890 238 868 C264 830 280 780 274 720 Z" fill="#f5f2ec" stroke="#1b1511" stroke-width="3.5" stroke-linejoin="round"/>
<path d="M556 700 C544 770 562 830 600 884 C610 898 614 914 604 920 C596 904 578 890 562 868 C536 830 520 780 526 720 Z" fill="#f5f2ec" stroke="#1b1511" stroke-width="3.5" stroke-linejoin="round"/>
<path d="M256 740 C258 790 246 836 222 876 M544 740 C542 790 554 836 578 876" fill="none" stroke="#d6cfc2" stroke-width="2.5" stroke-linecap="round"/>

<!-- Cou -->
<path d="M360 672 L440 672 L446 770 L400 790 L354 770 Z" fill="#f4e2c4" stroke="#1b1511" stroke-width="4" stroke-linejoin="round"/>
<path d="M372 740 Q400 756 428 740" fill="none" stroke="#1b1511" stroke-width="2" opacity=".5"/>

<!-- Oreilles -->
<path d="M268 500 C244 494 238 552 262 576" fill="#f4e2c4" stroke="#1b1511" stroke-width="4"/>
<path d="M532 500 C556 494 562 552 538 576" fill="#f4e2c4" stroke="#1b1511" stroke-width="4"/>

<!-- Visage au trait -->
<path d="M400 356 C486 356 534 414 534 508 C534 606 482 700 400 700 C318 700 266 606 266 508 C266 414 314 356 400 356 Z" fill="#f4e2c4" stroke="#1b1511" stroke-width="5"/>

<!-- Mèches blanches qui encadrent le visage -->
<path d="M318 372 C282 400 266 450 268 520 C272 470 292 430 330 404 C322 392 320 382 318 372 Z" fill="#f5f2ec" stroke="#1b1511" stroke-width="3.5" stroke-linejoin="round"/>
<path d="M482 372 C518 400 534 450 532 520 C528 470 508 430 470 404 C478 392 480 382 482 372 Z" fill="#f5f2ec" stroke="#1b1511" stroke-width="3.5" stroke-linejoin="round"/>

<!-- Sourcils -->
<path d="M306 462 C330 448 356 448 378 458" fill="none" stroke="#a89f90" stroke-width="6.5" stroke-linecap="round"/>
<path d="M422 458 C444 448 470 448 494 462" fill="none" stroke="#a89f90" stroke-width="6" stroke-linecap="round"/>

<!-- Yeux en amande -->
<path d="M316 506 C330 492 352 492 366 506 C352 516 330 516 316 506 Z" fill="#f3e6cc" stroke="#1b1511" stroke-width="3"/>
<path d="M434 506 C448 492 470 492 484 506 C470 516 448 516 434 506 Z" fill="#f3e6cc" stroke="#1b1511" stroke-width="3"/>
<circle cx="341" cy="505" r="7" fill="#1b1511"/><circle cx="459" cy="505" r="7" fill="#1b1511"/>
<circle cx="343.5" cy="502.5" r="2" fill="#f3e6cc"/><circle cx="461.5" cy="502.5" r="2" fill="#f3e6cc"/>

<!-- Lunettes rectangulaires fines -->
<rect x="296" y="478" width="94" height="60" rx="12" fill="none" stroke="#1b1511" stroke-width="6"/>
<rect x="410" y="478" width="94" height="60" rx="12" fill="none" stroke="#1b1511" stroke-width="6"/>
<rect x="301" y="483" width="84" height="50" rx="8" fill="none" stroke="#c9a24a" stroke-width="1.5" opacity=".8"/>
<rect x="415" y="483" width="84" height="50" rx="8" fill="none" stroke="#c9a24a" stroke-width="1.5" opacity=".8"/>
<path d="M390 500 Q400 492 410 500" fill="none" stroke="#1b1511" stroke-width="5"/>
<path d="M296 494 L268 504 M504 494 L532 504" stroke="#1b1511" stroke-width="5" stroke-linecap="round"/>

<!-- Nez : une ligne -->
<path d="M404 528 C396 566 388 590 396 600 C404 606 414 604 420 598" fill="none" stroke="#1b1511" stroke-width="3.5" stroke-linecap="round"/>

<!-- Léger sourire -->
<path d="M352 640 C378 662 422 662 448 640" fill="none" stroke="#1b1511" stroke-width="4.5" stroke-linecap="round"/>
<path d="M376 668 C392 676 408 676 424 668" fill="none" stroke="#1b1511" stroke-width="2.5" stroke-linecap="round" opacity=".55"/>
<path d="M346 632 Q349 640 354 644 M454 632 Q451 640 446 644" fill="none" stroke="#1b1511" stroke-width="2.5" stroke-linecap="round" opacity=".6"/>

<!-- Haut-de-forme géométrique -->
<g transform="rotate(-4 400 368)">
  <path d="M288 120 L512 120 L524 360 L276 360 Z" fill="#1b1511" stroke="#c9a24a" stroke-width="3" stroke-linejoin="miter"/>
  <path d="M310 136 L318 344 M490 136 L482 344" stroke="#c9a24a" stroke-width="1.5" opacity=".5"/>
  <rect x="279" y="292" width="242" height="34" fill="#9b1c1c" stroke="#c9a24a" stroke-width="2.5"/>
  <path d="M286 316 L303 300 L320 316" fill="none" stroke="#c9a24a" stroke-width="3"/><path d="M320 316 L337 300 L354 316" fill="none" stroke="#c9a24a" stroke-width="3"/><path d="M354 316 L371 300 L388 316" fill="none" stroke="#c9a24a" stroke-width="3"/><path d="M388 316 L405 300 L422 316" fill="none" stroke="#c9a24a" stroke-width="3"/><path d="M422 316 L439 300 L456 316" fill="none" stroke="#c9a24a" stroke-width="3"/><path d="M456 316 L473 300 L490 316" fill="none" stroke="#c9a24a" stroke-width="3"/><path d="M490 316 L507 300 L524 316" fill="none" stroke="#c9a24a" stroke-width="3"/>
  <path d="M184 372 C240 350 560 350 616 372 C560 392 240 392 184 372 Z" fill="#1b1511" stroke="#c9a24a" stroke-width="3"/>
</g>

<!-- Baguette et étoile déco -->
<path d="M560 1090 L690 880" stroke="#1b1511" stroke-width="16" stroke-linecap="round"/>
<path d="M560 1090 L690 880" stroke="#c9a24a" stroke-width="2" stroke-linecap="round" opacity=".6"/>
<path d="M674 906 L690 880" stroke="#f3e6cc" stroke-width="16" stroke-linecap="round"/>
<line x1="706" y1="852" x2="752.0" y2="852.0" stroke="#e9d18f" stroke-width="3.5" stroke-linecap="round"/><line x1="706" y1="852" x2="725.1" y2="859.9" stroke="#e9d18f" stroke-width="2" stroke-linecap="round"/><line x1="706" y1="852" x2="738.5" y2="884.5" stroke="#e9d18f" stroke-width="3.5" stroke-linecap="round"/><line x1="706" y1="852" x2="713.9" y2="871.1" stroke="#e9d18f" stroke-width="2" stroke-linecap="round"/><line x1="706" y1="852" x2="706.0" y2="898.0" stroke="#e9d18f" stroke-width="3.5" stroke-linecap="round"/><line x1="706" y1="852" x2="698.1" y2="871.1" stroke="#e9d18f" stroke-width="2" stroke-linecap="round"/><line x1="706" y1="852" x2="673.5" y2="884.5" stroke="#e9d18f" stroke-width="3.5" stroke-linecap="round"/><line x1="706" y1="852" x2="686.9" y2="859.9" stroke="#e9d18f" stroke-width="2" stroke-linecap="round"/><line x1="706" y1="852" x2="660.0" y2="852.0" stroke="#e9d18f" stroke-width="3.5" stroke-linecap="round"/><line x1="706" y1="852" x2="686.9" y2="844.1" stroke="#e9d18f" stroke-width="2" stroke-linecap="round"/><line x1="706" y1="852" x2="673.5" y2="819.5" stroke="#e9d18f" stroke-width="3.5" stroke-linecap="round"/><line x1="706" y1="852" x2="698.1" y2="832.9" stroke="#e9d18f" stroke-width="2" stroke-linecap="round"/><line x1="706" y1="852" x2="706.0" y2="806.0" stroke="#e9d18f" stroke-width="3.5" stroke-linecap="round"/><line x1="706" y1="852" x2="713.9" y2="832.9" stroke="#e9d18f" stroke-width="2" stroke-linecap="round"/><line x1="706" y1="852" x2="738.5" y2="819.5" stroke="#e9d18f" stroke-width="3.5" stroke-linecap="round"/><line x1="706" y1="852" x2="725.1" y2="844.1" stroke="#e9d18f" stroke-width="2" stroke-linecap="round"/><path d="M706 829L713.36 844.64L729 852L713.36 859.36L706 875L698.64 859.36L683 852L698.64 844.64Z" fill="#e9d18f" stroke="#1b1511" stroke-width="2"/>

<rect width="800" height="1100" filter="url(#n)"/>
</svg>