<svg xmlns="http://www.w3.org/2000/svg" viewBox="0 0 900 1200" width="900" height="1200">
<defs><radialGradient id="g" cx=".5" cy=".4" r=".85"><stop offset="0" stop-color="#1f5c57"/><stop offset="1" stop-color="#0f3230"/></radialGradient><filter id="n"><feTurbulence type="fractalNoise" baseFrequency=".9" numOctaves="3" stitchTiles="stitch"/><feColorMatrix values="0 0 0 0 1 0 0 0 0 .9 0 0 0 0 .75 0 0 0 .12 0"/></filter></defs>
<rect width="900" height="1200" fill="url(#g)"/>
<path d="M70 936 A380 380 0 0 1 830 936" fill="none" stroke="#c9a24a" stroke-width="3" opacity="0.5"/><path d="M146 936 A304 304 0 0 1 754 936" fill="none" stroke="#c9a24a" stroke-width="3" opacity="0.43000000000000005"/><path d="M222 936 A228 228 0 0 1 678 936" fill="none" stroke="#c9a24a" stroke-width="3" opacity="0.36"/><path d="M298 936 A152 152 0 0 1 602 936" fill="none" stroke="#c9a24a" stroke-width="3" opacity="0.29000000000000004"/><path d="M374 936 A76 76 0 0 1 526 936" fill="none" stroke="#c9a24a" stroke-width="3" opacity="0.22"/><line x1="450" y1="936" x2="70.0" y2="936.0" stroke="#c9a24a" stroke-width="1.5" opacity=".35"/><line x1="450" y1="936" x2="82.9" y2="837.6" stroke="#c9a24a" stroke-width="1.5" opacity=".35"/><line x1="450" y1="936" x2="120.9" y2="746.0" stroke="#c9a24a" stroke-width="1.5" opacity=".35"/><line x1="450" y1="936" x2="181.3" y2="667.3" stroke="#c9a24a" stroke-width="1.5" opacity=".35"/><line x1="450" y1="936" x2="260.0" y2="606.9" stroke="#c9a24a" stroke-width="1.5" opacity=".35"/><line x1="450" y1="936" x2="351.6" y2="568.9" stroke="#c9a24a" stroke-width="1.5" opacity=".35"/><line x1="450" y1="936" x2="450.0" y2="556.0" stroke="#c9a24a" stroke-width="1.5" opacity=".35"/><line x1="450" y1="936" x2="548.4" y2="568.9" stroke="#c9a24a" stroke-width="1.5" opacity=".35"/><line x1="450" y1="936" x2="640.0" y2="606.9" stroke="#c9a24a" stroke-width="1.5" opacity=".35"/><line x1="450" y1="936" x2="718.7" y2="667.3" stroke="#c9a24a" stroke-width="1.5" opacity=".35"/><line x1="450" y1="936" x2="779.1" y2="746.0" stroke="#c9a24a" stroke-width="1.5" opacity=".35"/><line x1="450" y1="936" x2="817.1" y2="837.6" stroke="#c9a24a" stroke-width="1.5" opacity=".35"/><line x1="450" y1="936" x2="830.0" y2="936.0" stroke="#c9a24a" stroke-width="1.5" opacity=".35"/><path d="M450 456 C453.84 488.16 465.84 500.16 498 504 C465.84 507.84 453.84 519.84 450 552 C446.16 519.84 434.16 507.84 402 504 C434.16 500.16 446.16 488.16 450 456 Z" fill="#e9d18f" opacity="0.8"/>

<rect x="26" y="26" width="848" height="1148" fill="none" stroke="#c9a24a" stroke-width="3"/>
<rect x="40" y="40" width="820" height="1120" fill="none" stroke="#c9a24a" stroke-width="1.2" opacity=".6"/>
<path d="M40 24 C41.28 34.72 45.28 38.72 56 40 C45.28 41.28 41.28 45.28 40 56 C38.72 45.28 34.72 41.28 24 40 C34.72 38.72 38.72 34.72 40 24 Z" fill="#c9a24a" opacity="1"/><path d="M860 24 C861.28 34.72 865.28 38.72 876 40 C865.28 41.28 861.28 45.28 860 56 C858.72 45.28 854.72 41.28 844 40 C854.72 38.72 858.72 34.72 860 24 Z" fill="#c9a24a" opacity="1"/><path d="M40 1144 C41.28 1154.72 45.28 1158.72 56 1160 C45.28 1161.28 41.28 1165.28 40 1176 C38.72 1165.28 34.72 1161.28 24 1160 C34.72 1158.72 38.72 1154.72 40 1144 Z" fill="#c9a24a" opacity="1"/><path d="M860 1144 C861.28 1154.72 865.28 1158.72 876 1160 C865.28 1161.28 861.28 1165.28 860 1176 C858.72 1165.28 854.72 1161.28 844 1160 C854.72 1158.72 858.72 1154.72 860 1144 Z" fill="#c9a24a" opacity="1"/>
<rect width="900" height="1200" filter="url(#n)"/>
</svg>