<svg xmlns="http://www.w3.org/2000/svg" viewBox="0 0 900 1200" width="900" height="1200">
<defs><radialGradient id="g" cx=".5" cy=".4" r=".85"><stop offset="0" stop-color="#2a1d10"/><stop offset="1" stop-color="#0d0a09"/></radialGradient><filter id="n"><feTurbulence type="fractalNoise" baseFrequency=".9" numOctaves="3" stitchTiles="stitch"/><feColorMatrix values="0 0 0 0 1 0 0 0 0 .9 0 0 0 0 .75 0 0 0 .12 0"/></filter></defs>
<rect width="900" height="1200" fill="url(#g)"/>
<path d="M0 -20 L450 -60 L900 -20" fill="none" stroke="#c9a24a" stroke-width="3" opacity=".22"/><path d="M0 26 L450 -14 L900 26" fill="none" stroke="#c9a24a" stroke-width="3" opacity=".22"/><path d="M0 72 L450 32 L900 72" fill="none" stroke="#c9a24a" stroke-width="3" opacity=".22"/><path d="M0 118 L450 78 L900 118" fill="none" stroke="#c9a24a" stroke-width="3" opacity=".22"/><path d="M0 164 L450 124 L900 164" fill="none" stroke="#c9a24a" stroke-width="3" opacity=".22"/><path d="M0 210 L450 170 L900 210" fill="none" stroke="#c9a24a" stroke-width="3" opacity=".22"/><path d="M0 256 L450 216 L900 256" fill="none" stroke="#c9a24a" stroke-width="3" opacity=".22"/><path d="M0 302 L450 262 L900 302" fill="none" stroke="#c9a24a" stroke-width="3" opacity=".22"/><path d="M0 348 L450 308 L900 348" fill="none" stroke="#c9a24a" stroke-width="3" opacity=".22"/><path d="M0 394 L450 354 L900 394" fill="none" stroke="#c9a24a" stroke-width="3" opacity=".22"/><path d="M0 440 L450 400 L900 440" fill="none" stroke="#c9a24a" stroke-width="3" opacity=".22"/><path d="M0 486 L450 446 L900 486" fill="none" stroke="#c9a24a" stroke-width="3" opacity=".22"/><path d="M0 532 L450 492 L900 532" fill="none" stroke="#c9a24a" stroke-width="3" opacity=".22"/><path d="M0 578 L450 538 L900 578" fill="none" stroke="#c9a24a" stroke-width="3" opacity=".22"/><path d="M0 624 L450 584 L900 624" fill="none" stroke="#c9a24a" stroke-width="3" opacity=".22"/><path d="M0 670 L450 630 L900 670" fill="none" stroke="#c9a24a" stroke-width="3" opacity=".22"/><path d="M0 716 L450 676 L900 716" fill="none" stroke="#c9a24a" stroke-width="3" opacity=".22"/><path d="M0 762 L450 722 L900 762" fill="none" stroke="#c9a24a" stroke-width="3" opacity=".22"/><path d="M0 808 L450 768 L900 808" fill="none" stroke="#c9a24a" stroke-width="3" opacity=".22"/><path d="M0 854 L450 814 L900 854" fill="none" stroke="#c9a24a" stroke-width="3" opacity=".22"/><path d="M0 900 L450 860 L900 900" fill="none" stroke="#c9a24a" stroke-width="3" opacity=".22"/><path d="M0 946 L450 906 L900 946" fill="none" stroke="#c9a24a" stroke-width="3" opacity=".22"/><path d="M0 992 L450 952 L900 992" fill="none" stroke="#c9a24a" stroke-width="3" opacity=".22"/><path d="M0 1038 L450 998 L900 1038" fill="none" stroke="#c9a24a" stroke-width="3" opacity=".22"/><path d="M0 1084 L450 1044 L900 1084" fill="none" stroke="#c9a24a" stroke-width="3" opacity=".22"/><path d="M0 1130 L450 1090 L900 1130" fill="none" stroke="#c9a24a" stroke-width="3" opacity=".22"/><path d="M0 1176 L450 1136 L900 1176" fill="none" stroke="#c9a24a" stroke-width="3" opacity=".22"/><path d="M0 1222 L450 1182 L900 1222" fill="none" stroke="#c9a24a" stroke-width="3" opacity=".22"/><path d="M0 1268 L450 1228 L900 1268" fill="none" stroke="#c9a24a" stroke-width="3" opacity=".22"/><circle cx="450" cy="600" r="150" fill="#0d0a09" stroke="#c9a24a" stroke-width="3"/><path d="M450 520 C456.4 573.6 476.4 593.6 530 600 C476.4 606.4 456.4 626.4 450 680 C443.6 626.4 423.6 606.4 370 600 C423.6 593.6 443.6 573.6 450 520 Z" fill="#c9a24a" opacity="0.95"/>

<rect x="26" y="26" width="848" height="1148" fill="none" stroke="#c9a24a" stroke-width="3"/>
<rect x="40" y="40" width="820" height="1120" fill="none" stroke="#c9a24a" stroke-width="1.2" opacity=".6"/>
<path d="M40 24 C41.28 34.72 45.28 38.72 56 40 C45.28 41.28 41.28 45.28 40 56 C38.72 45.28 34.72 41.28 24 40 C34.72 38.72 38.72 34.72 40 24 Z" fill="#c9a24a" opacity="1"/><path d="M860 24 C861.28 34.72 865.28 38.72 876 40 C865.28 41.28 861.28 45.28 860 56 C858.72 45.28 854.72 41.28 844 40 C854.72 38.72 858.72 34.72 860 24 Z" fill="#c9a24a" opacity="1"/><path d="M40 1144 C41.28 1154.72 45.28 1158.72 56 1160 C45.28 1161.28 41.28 1165.28 40 1176 C38.72 1165.28 34.72 1161.28 24 1160 C34.72 1158.72 38.72 1154.72 40 1144 Z" fill="#c9a24a" opacity="1"/><path d="M860 1144 C861.28 1154.72 865.28 1158.72 876 1160 C865.28 1161.28 861.28 1165.28 860 1176 C858.72 1165.28 854.72 1161.28 844 1160 C854.72 1158.72 858.72 1154.72 860 1144 Z" fill="#c9a24a" opacity="1"/>
<rect width="900" height="1200" filter="url(#n)"/>
</svg>