<svg xmlns="http://www.w3.org/2000/svg" viewBox="0 0 900 1200" width="900" height="1200">
<defs><radialGradient id="g" cx=".5" cy=".4" r=".85"><stop offset="0" stop-color="#1f5c57"/><stop offset="1" stop-color="#081c1a"/></radialGradient><filter id="n"><feTurbulence type="fractalNoise" baseFrequency=".9" numOctaves="3" stitchTiles="stitch"/><feColorMatrix values="0 0 0 0 1 0 0 0 0 .9 0 0 0 0 .75 0 0 0 .12 0"/></filter></defs>
<rect width="900" height="1200" fill="url(#g)"/>
<path d="M120 420 A330 330 0 0 1 780 420" fill="none" stroke="#c9a24a" stroke-width="3" opacity="0.5"/><path d="M186 420 A264 264 0 0 1 714 420" fill="none" stroke="#c9a24a" stroke-width="3" opacity="0.43000000000000005"/><path d="M252 420 A198 198 0 0 1 648 420" fill="none" stroke="#c9a24a" stroke-width="3" opacity="0.36"/><path d="M318 420 A132 132 0 0 1 582 420" fill="none" stroke="#c9a24a" stroke-width="3" opacity="0.29000000000000004"/><path d="M384 420 A66 66 0 0 1 516 420" fill="none" stroke="#c9a24a" stroke-width="3" opacity="0.22"/><line x1="450" y1="420" x2="120.0" y2="420.0" stroke="#c9a24a" stroke-width="1.5" opacity=".35"/><line x1="450" y1="420" x2="131.2" y2="334.6" stroke="#c9a24a" stroke-width="1.5" opacity=".35"/><line x1="450" y1="420" x2="164.2" y2="255.0" stroke="#c9a24a" stroke-width="1.5" opacity=".35"/><line x1="450" y1="420" x2="216.7" y2="186.7" stroke="#c9a24a" stroke-width="1.5" opacity=".35"/><line x1="450" y1="420" x2="285.0" y2="134.2" stroke="#c9a24a" stroke-width="1.5" opacity=".35"/><line x1="450" y1="420" x2="364.6" y2="101.2" stroke="#c9a24a" stroke-width="1.5" opacity=".35"/><line x1="450" y1="420" x2="450.0" y2="90.0" stroke="#c9a24a" stroke-width="1.5" opacity=".35"/><line x1="450" y1="420" x2="535.4" y2="101.2" stroke="#c9a24a" stroke-width="1.5" opacity=".35"/><line x1="450" y1="420" x2="615.0" y2="134.2" stroke="#c9a24a" stroke-width="1.5" opacity=".35"/><line x1="450" y1="420" x2="683.3" y2="186.7" stroke="#c9a24a" stroke-width="1.5" opacity=".35"/><line x1="450" y1="420" x2="735.8" y2="255.0" stroke="#c9a24a" stroke-width="1.5" opacity=".35"/><line x1="450" y1="420" x2="768.8" y2="334.6" stroke="#c9a24a" stroke-width="1.5" opacity=".35"/><line x1="450" y1="420" x2="780.0" y2="420.0" stroke="#c9a24a" stroke-width="1.5" opacity=".35"/><g transform="rotate(180 450 864)"><path d="M120 864 A330 330 0 0 1 780 864" fill="none" stroke="#c9a24a" stroke-width="3" opacity="0.5"/><path d="M186 864 A264 264 0 0 1 714 864" fill="none" stroke="#c9a24a" stroke-width="3" opacity="0.43000000000000005"/><path d="M252 864 A198 198 0 0 1 648 864" fill="none" stroke="#c9a24a" stroke-width="3" opacity="0.36"/><path d="M318 864 A132 132 0 0 1 582 864" fill="none" stroke="#c9a24a" stroke-width="3" opacity="0.29000000000000004"/><path d="M384 864 A66 66 0 0 1 516 864" fill="none" stroke="#c9a24a" stroke-width="3" opacity="0.22"/><line x1="450" y1="864" x2="120.0" y2="864.0" stroke="#c9a24a" stroke-width="1.5" opacity=".35"/><line x1="450" y1="864" x2="131.2" y2="778.6" stroke="#c9a24a" stroke-width="1.5" opacity=".35"/><line x1="450" y1="864" x2="164.2" y2="699.0" stroke="#c9a24a" stroke-width="1.5" opacity=".35"/><line x1="450" y1="864" x2="216.7" y2="630.7" stroke="#c9a24a" stroke-width="1.5" opacity=".35"/><line x1="450" y1="864" x2="285.0" y2="578.2" stroke="#c9a24a" stroke-width="1.5" opacity=".35"/><line x1="450" y1="864" x2="364.6" y2="545.2" stroke="#c9a24a" stroke-width="1.5" opacity=".35"/><line x1="450" y1="864" x2="450.0" y2="534.0" stroke="#c9a24a" stroke-width="1.5" opacity=".35"/><line x1="450" y1="864" x2="535.4" y2="545.2" stroke="#c9a24a" stroke-width="1.5" opacity=".35"/><line x1="450" y1="864" x2="615.0" y2="578.2" stroke="#c9a24a" stroke-width="1.5" opacity=".35"/><line x1="450" y1="864" x2="683.3" y2="630.7" stroke="#c9a24a" stroke-width="1.5" opacity=".35"/><line x1="450" y1="864" x2="735.8" y2="699.0" stroke="#c9a24a" stroke-width="1.5" opacity=".35"/><line x1="450" y1="864" x2="768.8" y2="778.6" stroke="#c9a24a" stroke-width="1.5" opacity=".35"/><line x1="450" y1="864" x2="780.0" y2="864.0" stroke="#c9a24a" stroke-width="1.5" opacity=".35"/></g>

<rect x="26" y="26" width="848" height="1148" fill="none" stroke="#c9a24a" stroke-width="3"/>
<rect x="40" y="40" width="820" height="1120" fill="none" stroke="#c9a24a" stroke-width="1.2" opacity=".6"/>
<path d="M40 24 C41.28 34.72 45.28 38.72 56 40 C45.28 41.28 41.28 45.28 40 56 C38.72 45.28 34.72 41.28 24 40 C34.72 38.72 38.72 34.72 40 24 Z" fill="#c9a24a" opacity="1"/><path d="M860 24 C861.28 34.72 865.28 38.72 876 40 C865.28 41.28 861.28 45.28 860 56 C858.72 45.28 854.72 41.28 844 40 C854.72 38.72 858.72 34.72 860 24 Z" fill="#c9a24a" opacity="1"/><path d="M40 1144 C41.28 1154.72 45.28 1158.72 56 1160 C45.28 1161.28 41.28 1165.28 40 1176 C38.72 1165.28 34.72 1161.28 24 1160 C34.72 1158.72 38.72 1154.72 40 1144 Z" fill="#c9a24a" opacity="1"/><path d="M860 1144 C861.28 1154.72 865.28 1158.72 876 1160 C865.28 1161.28 861.28 1165.28 860 1176 C858.72 1165.28 854.72 1161.28 844 1160 C854.72 1158.72 858.72 1154.72 860 1144 Z" fill="#c9a24a" opacity="1"/>
<rect width="900" height="1200" filter="url(#n)"/>
</svg>